<?xml version="1.0" encoding="utf-8"?>
<!-- Generator: Adobe Illustrator 26.4.1, SVG Export Plug-In . SVG Version: 6.00 Build 0)  -->
<svg version="1.1" id="图层_1" xmlns="http://www.w3.org/2000/svg" xmlns:xlink="http://www.w3.org/1999/xlink" x="0px" y="0px"
	 viewBox="0 0 493.3 112.2" style="enable-background:new 0 0 493.3 112.2;" xml:space="preserve">
<style type="text/css">
	.st0{fill:#280B45;}
</style>
<g>
	<path class="st0" d="M69.9,48.1c-0.5-0.5-1.1-0.9-1.7-1.1c-0.5-0.3-1.1-0.6-1.6-0.9c-0.6-0.3-1.2-0.5-1.7-0.8
		c-2.4-0.9-5-1.2-7.6-1.1c-0.4,0-0.9,0.1-1.3,0.1l-3.5,20.5C58,64,63.1,61.6,67,58.3c0.6-0.5,1.2-1.1,1.7-1.6s1-1.1,1.4-1.7
		c0.5-0.8,0.9-1.7,1.1-2.5l0,0C71.6,50.9,71,49.1,69.9,48.1z"/>
	<path class="st0" d="M97.8,0H11.1C5,0,0,5,0,11.1v90c0,6.1,5,11.1,11.1,11.1h86.7c6.1,0,11.1-5,11.1-11.1v-90
		C108.9,5,103.9,0,97.8,0z M90.5,49.6c-0.1,3.3-1.1,6.5-2.6,9.4s-3.7,5.4-6,7.5c-1,0.9-2.1,1.7-3.2,2.5c-1.1,0.7-2.2,1.4-3.3,2
		c-7.8,4.2-16.5,5.9-24.8,4.9l-2.8,16c-0.4,2.2-9.6,2.1-10.2-0.1L29.9,43c-4.6,1.4-8.3,2-8.4,1.1l-0.1-0.6l-2.8-11.2l7.3-5.3
		c5.2-3.9,11.1-6.3,16.9-7.5c5.9-1.2,11.7-1.2,17.4-0.1c5.6,1.1,11.1,3.2,15.9,6.4c1.2,0.8,2.4,1.7,3.5,2.6l1.6,1.5
		c0.5,0.5,1,1,1.6,1.5c2.5,2.6,4.5,5.4,5.9,8.5l0,0C90,43,90.7,46.3,90.5,49.6z"/>
</g>
<g transform="matrix(1.5521255450432145,0,0,1.5521255450432145,105.51712790033059,5.3754911292901575)">
	<path class="st0" d="M32.3,15.6c6.3,0,11.5,5.1,11.5,11.5s-5.1,11.5-11.5,11.5h-8.9v8.9c0,1.5-1.2,2.7-2.7,2.7S18,49,18,47.5V35.8
		c0-1.5,1.2-2.7,2.7-2.7h11.7c3.3,0,6-2.7,6-6s-2.7-6-6-6h-5.1l5.6,5.6c1.1,1.1,1.1,2.8,0,3.8c-1.1,1.1-2.8,1.1-3.8,0L18.7,20.3
		c-0.8-0.8-1-1.9-0.6-3c0.4-1.1,1.4-1.7,2.5-1.7L32.3,15.6L32.3,15.6z M59,44.8c1.5,0,2.7,1.2,2.7,2.7s-1.2,2.7-2.7,2.7
		c-7.1,0-12.9-5.8-12.9-12.9v-19c0-1.5,1.2-2.7,2.7-2.7c1.5,0,2.7,1.2,2.7,2.7v18.9C51.5,41.4,54.9,44.8,59,44.8L59,44.8z
		 M84.4,24.8c1.5,0,2.7,1.2,2.7,2.7v20c0,1.5-1.2,2.7-2.7,2.7c-1.4,0-2.5-1-2.7-2.3c-2.1,1.5-4.6,2.3-7.3,2.3
		c-7,0-12.7-5.7-12.7-12.7s5.7-12.7,12.7-12.7c2.7,0,5.2,0.9,7.3,2.3C81.9,25.8,83,24.8,84.4,24.8z M74.4,44.8c4,0,7.3-3.3,7.3-7.3
		s-3.3-7.3-7.3-7.3s-7.3,3.3-7.3,7.3S70.4,44.8,74.4,44.8z M99.4,24.8c5.4,0,9.9,4.4,9.9,9.9v12.9c0,1.5-1.2,2.7-2.7,2.7
		s-2.7-1.2-2.7-2.7v-13c0-2.4-2-4.4-4.4-4.4s-4.4,2-4.4,4.4v12.9c0,1.5-1.2,2.7-2.7,2.7s-2.7-1.2-2.7-2.7v-20c0-1.5,1.2-2.7,2.7-2.7
		c1,0,1.8,0.5,2.3,1.3C95.9,25.2,97.6,24.8,99.4,24.8L99.4,24.8z M128.2,37.5l8,8c1.1,1.1,1.1,2.8,0,3.8c-0.5,0.5-1.2,0.8-1.9,0.8
		s-1.4-0.3-1.9-0.8l-8-8l-8,8c-0.5,0.5-1.2,0.8-1.9,0.8c-0.3,0-0.7-0.1-1-0.2c-1-0.4-1.7-1.4-1.7-2.5V18.3c0-1.5,1.2-2.7,2.7-2.7
		s2.7,1.2,2.7,2.7v22.6l15.3-15.3c1.1-1.1,2.8-1.1,3.8,0c1.1,1.1,1.1,2.8,0,3.8L128.2,37.5z M178.7,38.7L178.7,38.7v8.7
		c0,1.1-0.7,2.1-1.7,2.5c-0.3,0.1-0.7,0.2-1,0.2c-0.7,0-1.4-0.3-1.9-0.8l-10.2-10.2c-1.1-1.1-1.1-2.8,0-3.8c1.1-1.1,2.8-1.1,3.8,0
		l5.6,5.6v-1.1l-15-15v22.6c0,1.5-1.2,2.7-2.7,2.7s-2.7-1.2-2.7-2.7V18.3c0-1.1,0.7-2.1,1.7-2.5s2.2-0.2,3,0.6l15.8,15.8V18.3
		c0-1.5,1.2-2.7,2.7-2.7s2.7,1.2,2.7,2.7L178.7,38.7L178.7,38.7z M193.8,24.8c7,0,12.7,5.7,12.7,12.7s-5.7,12.7-12.7,12.7
		c-7,0-12.7-5.7-12.7-12.7S186.8,24.8,193.8,24.8z M193.8,44.8c4,0,7.3-3.3,7.3-7.3s-3.3-7.3-7.3-7.3c-4,0-7.3,3.3-7.3,7.3
		S189.8,44.8,193.8,44.8z M221.8,44.8c1.5,0,2.7,1.2,2.7,2.7s-1.2,2.7-2.7,2.7c-7.1,0-12.9-5.8-12.9-12.9v-19c0-1.5,1.2-2.7,2.7-2.7
		s2.7,1.2,2.7,2.7v6.4h7.5c1.5,0,2.7,1.2,2.7,2.7s-1.2,2.7-2.7,2.7h-7.5v7.1C214.3,41.4,217.7,44.8,221.8,44.8L221.8,44.8z
		 M237.2,24.8c7,0,12.7,5.7,12.7,12.7c0,1.5-1.2,2.7-2.7,2.7h-16.8c1.1,2.7,3.7,4.6,6.8,4.6c1.9,0,3.8-0.8,5.2-2.1
		c1.1-1.1,2.8-1.1,3.8,0c1.1,1.1,1.1,2.8,0,3.8c-2.4,2.4-5.6,3.7-9,3.7c-7,0-12.7-5.7-12.7-12.7S230.2,24.8,237.2,24.8L237.2,24.8z
		 M230.4,34.8h13.5c-1.1-2.7-3.7-4.6-6.8-4.6C234.1,30.2,231.5,32.1,230.4,34.8L230.4,34.8z"/>
</g>
</svg>
