<?xml version="1.0" encoding="utf-8"?>
<!-- Generator: Adobe Illustrator 26.4.1, SVG Export Plug-In . SVG Version: 6.00 Build 0)  -->
<svg version="1.1" id="图层_1" xmlns="http://www.w3.org/2000/svg" xmlns:xlink="http://www.w3.org/1999/xlink" x="0px" y="0px"
     viewBox="0 0 113.4 113.4">
    <style type="text/css">
        .st0 {
            fill: #0d6efd;
        }
    </style>
    <g>
        <path class="st0" d="M72.8,48.6c-0.5-0.5-1.1-0.9-1.8-1.1c-0.5-0.3-1.1-0.6-1.7-0.9c-0.6-0.3-1.2-0.5-1.8-0.8
		c-2.5-0.9-5.2-1.2-7.9-1.1c-0.4,0-0.9,0.1-1.4,0.1l-3.6,20.7c5.7-0.8,11-3.2,15.1-6.6c0.6-0.5,1.2-1.1,1.8-1.6
		c0.5-0.5,1-1.1,1.5-1.7c0.5-0.8,0.9-1.7,1.1-2.5l0,0C74.5,51.4,73.9,49.6,72.8,48.6z"/>
        <path class="st0" d="M101.8,0H11.6C5.2,0,0,5.1,0,11.2v91c0,6.2,5.2,11.2,11.6,11.2h90.3c6.4,0,11.6-5.1,11.6-11.2v-91
		C113.4,5.1,108.2,0,101.8,0z M94.2,50.1c-0.1,3.3-1.1,6.6-2.7,9.5c-1.6,2.9-3.9,5.5-6.2,7.6c-1,0.9-2.2,1.7-3.3,2.5
		c-1.1,0.7-2.3,1.4-3.4,2c-8.1,4.2-17.2,6-25.8,5l-2.9,16.2c-0.4,2.2-10,2.1-10.6-0.1l-8-49.3c-4.8,1.4-8.6,2-8.7,1.1L22.3,44
		l-2.9-11.3l7.6-5.4c5.4-3.9,11.6-6.4,17.6-7.6c6.1-1.2,12.2-1.2,18.1-0.1c5.8,1.1,11.6,3.2,16.6,6.5c1.2,0.8,2.5,1.7,3.6,2.6
		l1.7,1.5c0.5,0.5,1,1,1.7,1.5c2.6,2.6,4.7,5.5,6.1,8.6l0,0C93.7,43.5,94.4,46.8,94.2,50.1z"/>
    </g>
</svg>
